<?xml version="1.0" standalone="no"?>
<!DOCTYPE svg PUBLIC "-//W3C//DTD SVG 20010904//EN"
 "http://www.w3.org/TR/2001/REC-SVG-20010904/DTD/svg10.dtd">
<svg version="1.0" xmlns="http://www.w3.org/2000/svg"
 width="512.000000pt" height="512.000000pt" viewBox="0 0 512.000000 512.000000"
 preserveAspectRatio="xMidYMid meet">
<metadata>
Created by potrace 1.11, written by Peter Selinger 2001-2013
</metadata>
<g transform="translate(0.000000,512.000000) scale(0.100000,-0.100000)"
fill="#000000" stroke="none">
<path d="M1921 5094 c-306 -104 -435 -438 -275 -714 165 -284 554 -326 779
-85 138 148 172 372 84 548 -83 165 -238 265 -424 273 -76 3 -101 0 -164 -22z"/>
<path d="M2730 4133 c-133 -22 -986 -197 -1023 -209 -81 -27 -94 -51 -276
-507 -92 -229 -169 -419 -172 -421 -3 -3 -77 13 -165 35 -87 23 -166 42 -174
44 -8 2 -71 17 -140 35 -69 17 -143 34 -165 36 -118 15 -218 -77 -217 -197 0
-70 27 -115 98 -165 25 -17 798 -214 862 -219 92 -7 165 39 206 129 12 28 63
151 111 274 49 122 91 222 94 222 3 0 5 -208 4 -463 l-3 -463 -90 -244 c-50
-135 -94 -254 -99 -265 -5 -11 -51 -132 -101 -270 -66 -179 -92 -263 -92 -295
0 -40 45 -170 117 -335 7 -16 43 -106 80 -200 37 -93 73 -183 80 -200 7 -16
45 -113 85 -213 83 -208 97 -226 198 -238 123 -15 242 103 227 225 -3 19 -23
87 -46 151 -22 63 -54 153 -71 200 -35 99 -97 273 -162 453 l-46 128 141 322
c77 177 149 340 159 362 25 55 55 123 74 169 9 22 18 37 20 35 2 -2 7 -31 10
-64 4 -33 9 -67 11 -75 2 -8 6 -42 10 -75 3 -33 8 -71 10 -85 3 -14 7 -43 10
-65 6 -53 25 -194 30 -225 2 -14 9 -63 15 -110 6 -47 14 -100 16 -119 3 -18 7
-43 8 -55 1 -11 8 -39 16 -60 16 -49 626 -864 666 -891 44 -29 128 -31 187 -5
64 29 99 82 105 159 5 71 -15 120 -84 207 -27 34 -128 166 -224 294 -96 128
-180 237 -185 244 -6 6 -28 35 -49 64 l-39 54 -1 1209 -1 1208 235 -233 c217
-215 258 -252 300 -265 33 -10 109 -5 136 9 33 17 545 355 617 407 78 58 107
146 78 236 -16 47 -80 102 -134 115 -87 22 -114 9 -442 -212 l-170 -114 -255
253 c-238 236 -259 254 -309 269 -30 9 -55 15 -55 15 -1 -1 -12 -4 -26 -6z"/>
<path d="M4416 3115 c-21 -7 -44 -19 -50 -25 -8 -8 -12 -135 -14 -426 l-3
-414 -40 6 c-102 17 -180 -6 -272 -78 -75 -60 -114 -171 -87 -252 24 -75 132
-136 240 -136 152 0 289 104 315 238 2 9 4 180 4 378 1 427 -4 407 102 407
237 0 395 -80 447 -228 9 -26 11 -19 11 50 2 258 -117 429 -335 480 -76 18
-267 18 -318 0z"/>
</g>
</svg>
