<?xml version="1.0" encoding="UTF-8" standalone="no"?>
<svg
   xmlns:dc="http://purl.org/dc/elements/1.1/"
   xmlns:cc="http://creativecommons.org/ns#"
   xmlns:rdf="http://www.w3.org/1999/02/22-rdf-syntax-ns#"
   xmlns:svg="http://www.w3.org/2000/svg"
   xmlns="http://www.w3.org/2000/svg"
   xmlns:sodipodi="http://sodipodi.sourceforge.net/DTD/sodipodi-0.dtd"
   xmlns:inkscape="http://www.inkscape.org/namespaces/inkscape"
   version="1.1"
   id="svg6539"
   viewBox="0 0 540 540.00001"
   height="540"
   width="540"
   inkscape:version="0.91 r13725"
   sodipodi:docname="spinner_couple01.svg">
  <sodipodi:namedview
     pagecolor="#ffffff"
     bordercolor="#666666"
     borderopacity="1"
     objecttolerance="10"
     gridtolerance="10"
     guidetolerance="10"
     inkscape:pageopacity="0"
     inkscape:pageshadow="2"
     inkscape:window-width="1920"
     inkscape:window-height="1017"
     id="namedview219"
     showgrid="false"
     inkscape:zoom="1.7481481"
     inkscape:cx="581.19502"
     inkscape:cy="303.6961"
     inkscape:window-x="1912"
     inkscape:window-y="32"
     inkscape:window-maximized="1"
     inkscape:current-layer="svg6539" />
  <defs
     id="defs6541">
    <clipPath
       id="clipPath872"
       clipPathUnits="userSpaceOnUse">
      <path
         id="path874"
         d="m 4220.47,100.352 c 12.25,2.636 18.84,7.55 9.73,16.3 5.4,7.793 8.1,9.727 -6.77,14.278 4.05,7.781 6.77,16.883 -5.4,18.172 2.71,0 -1.35,12.332 -12.17,21.418 -10.81,9.089 -39.2,31.804 -52.71,36.343 -13.5,4.532 8.12,20.129 2.71,25.957 -1.23,1.328 -9.34,5.864 -21.25,12.129 2.25,35.434 3.47,86.992 -5.77,142.348 -14.88,88.914 -52.71,173.941 -77.04,173.941 -24.32,0 -24.32,-9.097 -47.28,-0.64 -23,8.425 -29.75,24.004 -77.06,51.265 -47.3,27.258 -51.35,65.539 -90.54,75.942 -14.7,3.883 -30.18,10.156 -46.48,17.097 15.22,19.161 28.58,38.243 35.67,53.621 22.97,49.993 70.28,172.004 77.01,210.293 6.79,38.304 28.4,77.244 37.86,84.374 9.47,7.15 -2.7,74 -17.56,124.62 -0.44,1.49 -0.85,3.02 -1.26,4.57 46.03,17.17 99.09,29.17 137.74,29.17 55.42,0 145.96,27.27 97.31,39.59 -48.64,12.34 -86.5,21.44 -106.76,33.76 -20.27,12.33 -22.97,16.88 -56.77,16.23 -33.78,-0.66 -12.16,27.25 -41.88,27.9 -6.6,0.14 -13.44,2.25 -20.89,5.33 7.18,9.72 12.3,17.12 10.07,34.27 -2.71,20.76 -12.44,114.16 -25.96,116.75 13.52,4.55 28.39,18.17 0,27.91 -23.53,8.07 -60.88,10.28 -89.95,8.23 -0.71,1.12 -1.73,2.11 -3.3,2.8 -14.87,6.49 -55.41,12.33 -106.77,11.03 -13.51,-1.93 -25.68,-8.42 -24.34,-24.02 -5.37,-3.89 -46.01,-54.2 -67.66,-45.11 -21.6,9.09 -67.55,11.69 -95.95,5.19 -28.38,-6.48 -44.59,0 -79.74,1.3 -35.13,1.29 -83.78,10.4 -98.65,-6.49 -14.85,-16.88 -26.91,6.16 -72.86,12.01 -45.94,5.84 -55.41,1.95 -79.73,-2.59 -24.34,-4.55 -44.07,37.3 -58.94,36.66 -10.69,-0.48 -35.28,-4.96 -52.82,-9.38 -6.56,6.63 -13.47,12.22 -20.15,15.22 -6.98,3.13 -14.51,5.37 -22.26,7 -4.97,6.29 -10.87,12.15 -18.29,15.71 -24.34,11.68 -89.48,-54.1 -98.94,-69.03 -7.69,-12.15 -21.64,-39.75 -7.67,-65.71 1.75,-4.98 6.2,-11.05 14.07,-18.34 -4.3,-6.11 -61.76,-6 -87.48,-15.89 -27.03,-10.4 -78.38,-17.52 -100.01,-10.4 -21.62,7.15 -116.22,32.45 -116.22,9.75 -16.22,5.84 -31.09,-2.6 -59.48,-7.79 -28.37,-5.2 -56.75,-1.96 -35.13,-33.75 21.63,-31.8 37.84,-41.55 110.83,-100.61 72.97,-59.06 272.98,-179.13 337.87,-231.697 49.14,-39.832 101.34,-99.395 131.41,-153.887 -65.76,-37.527 -125.35,-86.601 -161.15,-113.516 -62.17,-46.726 -177.07,-157.07 -201.38,-177.199 -8.1,29.887 -10.8,265.473 -6.75,319.34 4.06,53.863 -1.35,131.759 10.81,157.719 12.16,25.95 41.9,46.08 4.06,55.8 -37.85,9.75 -33.8,27.91 -81.09,28.57 -47.3,0.63 -17.56,-28.57 8.1,-39.59 25.68,-11.03 1.35,-54.53 1.35,-79.835 0,-25.312 -32.42,-20.769 -59.45,-29.851 -27.04,-9.094 14.86,-8.45 0,-17.52 -14.89,-9.105 -13.52,-15.586 16.22,-38.957 29.71,-23.34 0,-42.82 -25.7,-57.766 -25.67,-14.929 0,-14.265 25.7,-33.726 25.66,-19.485 -6.78,-37.012 -32.44,-47.383 -25.68,-10.383 -25.68,-7.148 -35.15,-24.023 100.01,-49.329 120.28,-184.961 120.28,-196.016 -19.33,-11.008 -16.62,-19.582 -9.83,-25.293 -5.86,-2.102 -11.51,-4.133 -16.81,-6.059 -28.09,-0.918 -54.08,-2.578 -78.77,-6.929 -51.35,-9.094 -113.52,-18.176 -58.11,-46.086 55.4,-27.91 202.73,-55.156 218.93,-65.547 16.22,-10.391 62.16,-31.809 79.75,-27.918 7.79,2.09 26.66,5.242 38.14,9.793 3.39,-0.313 6.54,-0.586 9.16,-0.711 17.46,-0.742 52.62,-7.109 83.36,-12.895 -17.97,-10.625 -77.77,-26.636 -11.73,-83.152 0,0 39.18,-33.086 148.65,-19.48 30.34,2.019 59.18,7.156 83.16,14.343 6.01,-9.914 7.66,-17.175 1.99,-19.519 -9.47,-3.899 -45.95,-16.899 -63.52,-45.449 -20.28,-14.914 -21.63,-15.571 -13.53,-33.086 -5.4,-10.403 -18.9,-23.371 -9.45,-34.399 0,0 -27.02,-57.1247 75.68,-63.6091 102.71,-6.4844 113.52,10.3984 132.45,10.3984 18.92,0 121.64,12.9607 91.89,70.0707 -29.72,57.136 -37.83,103.867 -16.22,107.754 21.64,3.894 54.07,10.378 67.59,14.277 13.51,3.887 154.07,5.183 175.7,5.183 21.61,0 118.91,-16.867 167.57,-22.05 25.55,-2.735 77.14,-17.285 125.12,-32.168 2.3,-1.074 4.32,-2.051 5.98,-2.891 25.67,-12.969 135.13,-55.812 135.13,-62.969 0,-7.136 4.07,-22.05 5.41,-39.578 1.35,-17.519 31.09,-45.4295 55.41,-50.6248 12.72,-2.7148 15.81,0.7891 15.49,5.3985 14.98,0.6953 22.1,4.375 23.7,7.9101 5.9,-1.1992 11.69,-2.4805 16.23,-3.5625 18.9,-4.5508 56.77,-9.7461 59.47,-2.6094 2.38,3.8204 -5.51,8.293 -13.79,12.2661 z m -267.33,353.781 c 47.31,-19.465 6.76,-20.11 -21.62,-44.113 -28.4,-24.024 95.96,-103.204 121.63,-122.676 0.85,-0.633 1.69,-1.367 2.53,-2.031 -27.52,13.914 -51.05,25.878 -55.23,28.644 -10.82,7.137 -87.85,42.195 -109.47,42.84 -21.63,0.644 -208.12,29.844 -220.3,48.672 -12.15,18.808 -25.68,114.875 -5.4,135.644 2.58,2.649 5.24,5.547 7.93,8.614 53.24,-12.168 110.11,-23 132.63,-26.141 41.89,-5.832 100.01,-49.973 147.3,-69.453 z m -151.36,153.836 c 41.74,-15.047 -1.12,-16.211 -79.88,-6.399 -6.73,5.805 -16.05,10.317 -12.02,14.184 1.25,1.187 10.54,10.43 23.46,24.082 30.62,-15.051 55.03,-27.043 68.44,-31.867 z M 3049,665.73 c 34.59,14.895 69.16,28.04 103.29,39.336 5.69,-39.336 8,-76.836 3.96,-98.711 -45.95,3.098 -112.63,-11.375 -112.63,-11.375 0,0 -18.94,16.883 -28.39,18.829 -8.16,1.679 -37.4,-2.93 -68.69,-11.297 -27.11,-2.461 -76.2,-16.25 -128.46,-33.032 40.44,19.172 124.21,50.266 230.92,96.25" />
    </clipPath>
  </defs>
  <metadata
     id="metadata6544">
    <rdf:RDF>
      <cc:Work
         rdf:about="">
        <dc:format>image/svg+xml</dc:format>
        <dc:type
           rdf:resource="http://purl.org/dc/dcmitype/StillImage" />
        <dc:title />
      </cc:Work>
    </rdf:RDF>
  </metadata>
  <g
     transform="translate(-266.47879,-259.07914)"
     id="layer1">
    <g
       transform="matrix(0.125,0,0,-0.125,115.66491,809.07891)"
       id="g868">
      <g
         clip-path="url(#clipPath872)"
         id="g870">
        <path
           id="path876"
           style="fill:#ffffff;fill-opacity:1;fill-rule:nonzero;stroke:none"
           d="m 2457.35,-80493.5 -0.01,80910.305 1801.97,0 0.01,-80910.305" />
        <path
           id="path878"
           style="fill:#ffffff;fill-opacity:1;fill-rule:nonzero;stroke:none"
           d="m 2457.34,416.809 1801.97,0 0,5.57031 -1801.97,0 0,-5.57031 z" />
        <path
           id="path880"
           style="fill:#ffffff;fill-opacity:1;fill-rule:nonzero;stroke:none"
           d="m 2457.34,422.379 1801.97,0 0,5.57031 -1801.97,0 0,-5.57031 z" />
        <path
           id="path882"
           style="fill:#ffffff;fill-opacity:1;fill-rule:nonzero;stroke:none"
           d="m 2457.34,427.949 1801.97,0 0,5.57031 -1801.97,0 0,-5.57031 z" />
        <path
           id="path884"
           style="fill:#ffffff;fill-opacity:1;fill-rule:nonzero;stroke:none"
           d="m 2457.34,433.52 1801.97,0 0,5.57422 -1801.97,0 0,-5.57422 z" />
        <path
           id="path886"
           style="fill:#ffffff;fill-opacity:1;fill-rule:nonzero;stroke:none"
           d="m 2457.34,439.094 1801.97,0 0,5.57031 -1801.97,0 0,-5.57031 z" />
        <path
           id="path888"
           style="fill:#ffffff;fill-opacity:1;fill-rule:nonzero;stroke:none"
           d="m 2457.34,444.664 1801.97,0 0,5.57031 -1801.97,0 0,-5.57031 z" />
        <path
           id="path890"
           style="fill:#ffffff;fill-opacity:1;fill-rule:nonzero;stroke:none"
           d="m 2457.34,450.234 1801.97,0 0,5.57422 -1801.97,0 0,-5.57422 z" />
        <path
           id="path892"
           style="fill:#ffffff;fill-opacity:1;fill-rule:nonzero;stroke:none"
           d="m 2457.34,455.809 1801.97,0 0,5.57031 -1801.97,0 0,-5.57031 z" />
        <path
           id="path894"
           style="fill:#ffffff;fill-opacity:1;fill-rule:nonzero;stroke:none"
           d="m 2457.34,461.379 1801.97,0 0,5.57031 -1801.97,0 0,-5.57031 z" />
        <path
           id="path896"
           style="fill:#ffffff;fill-opacity:1;fill-rule:nonzero;stroke:none"
           d="m 2457.34,466.949 1801.97,0 0,5.57031 -1801.97,0 0,-5.57031 z" />
        <path
           id="path898"
           style="fill:#ffffff;fill-opacity:1;fill-rule:nonzero;stroke:none"
           d="m 2457.34,472.52 1801.97,0 0,5.57422 -1801.97,0 0,-5.57422 z" />
        <path
           id="path900"
           style="fill:#ffffff;fill-opacity:1;fill-rule:nonzero;stroke:none"
           d="m 2457.34,478.094 1801.97,0 0,5.57031 -1801.97,0 0,-5.57031 z" />
        <path
           id="path902"
           style="fill:#ffffff;fill-opacity:1;fill-rule:nonzero;stroke:none"
           d="m 2457.34,483.664 1801.97,0 0,5.57031 -1801.97,0 0,-5.57031 z" />
        <path
           id="path904"
           style="fill:#ffffff;fill-opacity:1;fill-rule:nonzero;stroke:none"
           d="m 2457.34,489.234 1801.97,0 0,5.57422 -1801.97,0 0,-5.57422 z" />
        <path
           id="path906"
           style="fill:#ffffff;fill-opacity:1;fill-rule:nonzero;stroke:none"
           d="m 2457.34,494.809 1801.97,0 0,5.57031 -1801.97,0 0,-5.57031 z" />
        <path
           id="path908"
           style="fill:#ffffff;fill-opacity:1;fill-rule:nonzero;stroke:none"
           d="m 2457.34,500.379 1801.97,0 0,5.57031 -1801.97,0 0,-5.57031 z" />
        <path
           id="path910"
           style="fill:#ffffff;fill-opacity:1;fill-rule:nonzero;stroke:none"
           d="m 2457.34,505.949 1801.97,0 0,5.57031 -1801.97,0 0,-5.57031 z" />
        <path
           id="path912"
           style="fill:#ffffff;fill-opacity:1;fill-rule:nonzero;stroke:none"
           d="m 2457.34,511.52 1801.97,0 0,5.57422 -1801.97,0 0,-5.57422 z" />
        <path
           id="path914"
           style="fill:#feffff;fill-opacity:1;fill-rule:nonzero;stroke:none"
           d="m 2457.34,517.094 1801.97,0 0,5.57031 -1801.97,0 0,-5.57031 z" />
        <path
           id="path916"
           style="fill:#feffff;fill-opacity:1;fill-rule:nonzero;stroke:none"
           d="m 2457.34,522.664 1801.97,0 0,5.57031 -1801.97,0 0,-5.57031 z" />
        <path
           id="path918"
           style="fill:#feffff;fill-opacity:1;fill-rule:nonzero;stroke:none"
           d="m 2457.34,528.234 1801.97,0 0,5.57422 -1801.97,0 0,-5.57422 z" />
        <path
           id="path920"
           style="fill:#feffff;fill-opacity:1;fill-rule:nonzero;stroke:none"
           d="m 2457.34,533.809 1801.97,0 0,5.57031 -1801.97,0 0,-5.57031 z" />
        <path
           id="path922"
           style="fill:#feffff;fill-opacity:1;fill-rule:nonzero;stroke:none"
           d="m 2457.34,539.379 1801.97,0 0,5.57031 -1801.97,0 0,-5.57031 z" />
        <path
           id="path924"
           style="fill:#fefefd;fill-opacity:1;fill-rule:nonzero;stroke:none"
           d="m 2457.34,544.949 1801.97,0 0,5.57031 -1801.97,0 0,-5.57031 z" />
        <path
           id="path926"
           style="fill:#fefefd;fill-opacity:1;fill-rule:nonzero;stroke:none"
           d="m 2457.34,550.52 1801.97,0 0,5.57422 -1801.97,0 0,-5.57422 z" />
        <path
           id="path928"
           style="fill:#fefefd;fill-opacity:1;fill-rule:nonzero;stroke:none"
           d="m 2457.34,556.094 1801.97,0 0,5.57031 -1801.97,0 0,-5.57031 z" />
        <path
           id="path930"
           style="fill:#fefefd;fill-opacity:1;fill-rule:nonzero;stroke:none"
           d="m 2457.34,561.664 1801.97,0 0,5.57031 -1801.97,0 0,-5.57031 z" />
        <path
           id="path932"
           style="fill:#fefefd;fill-opacity:1;fill-rule:nonzero;stroke:none"
           d="m 2457.34,567.234 0,5.571 1801.97,0.004 0,-5.575" />
        <path
           id="path934"
           style="fill:#fdfdfd;fill-opacity:1;fill-rule:nonzero;stroke:none"
           d="m 2457.34,572.805 0,5.574 1801.97,0 0,-5.57" />
        <path
           id="path936"
           style="fill:#fdfdfd;fill-opacity:1;fill-rule:nonzero;stroke:none"
           d="m 2457.34,578.379 1801.97,0 0,5.57031 -1801.97,0 0,-5.57031 z" />
        <path
           id="path938"
           style="fill:#fdfdfd;fill-opacity:1;fill-rule:nonzero;stroke:none"
           d="m 2457.34,583.949 1801.97,0 0,5.57031 -1801.97,0 0,-5.57031 z" />
        <path
           id="path940"
           style="fill:#fdfdfd;fill-opacity:1;fill-rule:nonzero;stroke:none"
           d="m 2457.34,589.52 1801.97,0 0,5.57422 -1801.97,0 0,-5.57422 z" />
        <path
           id="path942"
           style="fill:#fcfcfc;fill-opacity:1;fill-rule:nonzero;stroke:none"
           d="m 2457.34,595.094 1801.97,0 0,5.57031 -1801.97,0 0,-5.57031 z" />
        <path
           id="path944"
           style="fill:#fcfcfc;fill-opacity:1;fill-rule:nonzero;stroke:none"
           d="m 2457.34,600.664 1801.97,0 0,5.57031 -1801.97,0 0,-5.57031 z" />
        <path
           id="path946"
           style="fill:#fcfcfc;fill-opacity:1;fill-rule:nonzero;stroke:none"
           d="m 2457.34,606.234 1801.97,0 0,5.57031 -1801.97,0 0,-5.57031 z" />
        <path
           id="path948"
           style="fill:#fcfcfc;fill-opacity:1;fill-rule:nonzero;stroke:none"
           d="m 2457.34,611.805 1801.97,0 0,5.57422 -1801.97,0 0,-5.57422 z" />
        <path
           id="path950"
           style="fill:#fbfcfc;fill-opacity:1;fill-rule:nonzero;stroke:none"
           d="m 2457.34,617.379 1801.97,0 0,5.57031 -1801.97,0 0,-5.57031 z" />
        <path
           id="path952"
           style="fill:#fbfcfc;fill-opacity:1;fill-rule:nonzero;stroke:none"
           d="m 2457.34,622.949 1801.97,0 0,5.57031 -1801.97,0 0,-5.57031 z" />
        <path
           id="path954"
           style="fill:#fbfcfc;fill-opacity:1;fill-rule:nonzero;stroke:none"
           d="m 2457.34,628.52 1801.97,0 0,5.57422 -1801.97,0 0,-5.57422 z" />
        <path
           id="path956"
           style="fill:#fbfcfc;fill-opacity:1;fill-rule:nonzero;stroke:none"
           d="m 2457.34,634.094 1801.97,0 0,5.57031 -1801.97,0 0,-5.57031 z" />
        <path
           id="path958"
           style="fill:#fafafa;fill-opacity:1;fill-rule:nonzero;stroke:none"
           d="m 2457.34,639.664 1801.97,0 0,5.57031 -1801.97,0 0,-5.57031 z" />
        <path
           id="path960"
           style="fill:#fafafa;fill-opacity:1;fill-rule:nonzero;stroke:none"
           d="m 2457.34,645.234 1801.97,0 0,5.57031 -1801.97,0 0,-5.57031 z" />
        <path
           id="path962"
           style="fill:#fafafa;fill-opacity:1;fill-rule:nonzero;stroke:none"
           d="m 2457.34,650.805 1801.97,0 0,5.57422 -1801.97,0 0,-5.57422 z" />
        <path
           id="path964"
           style="fill:#fafafa;fill-opacity:1;fill-rule:nonzero;stroke:none"
           d="m 2457.34,656.379 1801.97,0 0,5.57031 -1801.97,0 0,-5.57031 z" />
        <path
           id="path966"
           style="fill:#fafafa;fill-opacity:1;fill-rule:nonzero;stroke:none"
           d="m 2457.34,661.949 1801.97,0 0,5.57031 -1801.97,0 0,-5.57031 z" />
        <path
           id="path968"
           style="fill:#fafafa;fill-opacity:1;fill-rule:nonzero;stroke:none"
           d="m 2457.34,667.52 1801.97,0 0,5.57422 -1801.97,0 0,-5.57422 z" />
        <path
           id="path970"
           style="fill:#f9f9f9;fill-opacity:1;fill-rule:nonzero;stroke:none"
           d="m 2457.34,673.094 1801.97,0 0,5.57031 -1801.97,0 0,-5.57031 z" />
        <path
           id="path972"
           style="fill:#f9f9f9;fill-opacity:1;fill-rule:nonzero;stroke:none"
           d="m 2457.34,678.664 1801.97,0 0,5.57031 -1801.97,0 0,-5.57031 z" />
        <path
           id="path974"
           style="fill:#f9f9f9;fill-opacity:1;fill-rule:nonzero;stroke:none"
           d="m 2457.34,684.234 1801.97,0 0,5.57031 -1801.97,0 0,-5.57031 z" />
        <path
           id="path976"
           style="fill:#f8f9f9;fill-opacity:1;fill-rule:nonzero;stroke:none"
           d="m 2457.34,689.805 1801.97,0 0,5.57422 -1801.97,0 0,-5.57422 z" />
        <path
           id="path978"
           style="fill:#f8f9f9;fill-opacity:1;fill-rule:nonzero;stroke:none"
           d="m 2457.34,695.379 1801.97,0 0,5.57031 -1801.97,0 0,-5.57031 z" />
        <path
           id="path980"
           style="fill:#f8f9f9;fill-opacity:1;fill-rule:nonzero;stroke:none"
           d="m 2457.34,700.949 1801.97,0 0,5.57031 -1801.97,0 0,-5.57031 z" />
        <path
           id="path982"
           style="fill:#f7f7f7;fill-opacity:1;fill-rule:nonzero;stroke:none"
           d="m 2457.34,706.52 1801.97,0 0,5.57422 -1801.97,0 0,-5.57422 z" />
        <path
           id="path984"
           style="fill:#f7f7f7;fill-opacity:1;fill-rule:nonzero;stroke:none"
           d="m 2457.34,712.094 1801.97,0 0,5.57031 -1801.97,0 0,-5.57031 z" />
        <path
           id="path986"
           style="fill:#f7f7f7;fill-opacity:1;fill-rule:nonzero;stroke:none"
           d="m 2457.34,717.664 1801.97,0 0,5.57031 -1801.97,0 0,-5.57031 z" />
        <path
           id="path988"
           style="fill:#f6f6f6;fill-opacity:1;fill-rule:nonzero;stroke:none"
           d="m 2457.34,723.234 1801.97,0 0,5.57031 -1801.97,0 0,-5.57031 z" />
        <path
           id="path990"
           style="fill:#f6f6f6;fill-opacity:1;fill-rule:nonzero;stroke:none"
           d="m 2457.34,728.805 1801.97,0 0,5.57422 -1801.97,0 0,-5.57422 z" />
        <path
           id="path992"
           style="fill:#f5f6f6;fill-opacity:1;fill-rule:nonzero;stroke:none"
           d="m 2457.34,734.379 1801.97,0 0,5.57031 -1801.97,0 0,-5.57031 z" />
        <path
           id="path994"
           style="fill:#f5f6f6;fill-opacity:1;fill-rule:nonzero;stroke:none"
           d="m 2457.34,739.949 1801.97,0 0,5.57031 -1801.97,0 0,-5.57031 z" />
        <path
           id="path996"
           style="fill:#f5f6f6;fill-opacity:1;fill-rule:nonzero;stroke:none"
           d="m 2457.34,745.52 0,5.57 1801.97,0.004 0,-5.574" />
        <path
           id="path998"
           style="fill:#f5f5f4;fill-opacity:1;fill-rule:nonzero;stroke:none"
           d="m 2457.34,751.09 0,5.574 1801.97,0 0,-5.57" />
        <path
           id="path1000"
           style="fill:#f5f5f4;fill-opacity:1;fill-rule:nonzero;stroke:none"
           d="m 2457.34,756.664 1801.97,0 0,5.57031 -1801.97,0 0,-5.57031 z" />
        <path
           id="path1002"
           style="fill:#f3f3f3;fill-opacity:1;fill-rule:nonzero;stroke:none"
           d="m 2457.34,762.234 1801.97,0 0,5.57031 -1801.97,0 0,-5.57031 z" />
        <path
           id="path1004"
           style="fill:#f3f3f3;fill-opacity:1;fill-rule:nonzero;stroke:none"
           d="m 2457.34,767.805 1801.97,0 0,5.57422 -1801.97,0 0,-5.57422 z" />
        <path
           id="path1006"
           style="fill:#f3f3f3;fill-opacity:1;fill-rule:nonzero;stroke:none"
           d="m 2457.34,773.379 1801.97,0 0,5.57031 -1801.97,0 0,-5.57031 z" />
        <path
           id="path1008"
           style="fill:#f2f2f2;fill-opacity:1;fill-rule:nonzero;stroke:none"
           d="m 2457.34,778.949 1801.97,0 0,5.57031 -1801.97,0 0,-5.57031 z" />
        <path
           id="path1010"
           style="fill:#f2f2f2;fill-opacity:1;fill-rule:nonzero;stroke:none"
           d="m 2457.34,784.52 1801.97,0 0,5.57031 -1801.97,0 0,-5.57031 z" />
        <path
           id="path1012"
           style="fill:#f1f1f0;fill-opacity:1;fill-rule:nonzero;stroke:none"
           d="m 2457.34,790.09 1801.97,0 0,5.57422 -1801.97,0 0,-5.57422 z" />
        <path
           id="path1014"
           style="fill:#f1f1f0;fill-opacity:1;fill-rule:nonzero;stroke:none"
           d="m 2457.34,795.664 1801.97,0 0,5.57031 -1801.97,0 0,-5.57031 z" />
        <path
           id="path1016"
           style="fill:#f0f0f0;fill-opacity:1;fill-rule:nonzero;stroke:none"
           d="m 2457.34,801.234 1801.97,0 0,5.57031 -1801.97,0 0,-5.57031 z" />
        <path
           id="path1018"
           style="fill:#f0f0f0;fill-opacity:1;fill-rule:nonzero;stroke:none"
           d="m 2457.34,806.805 1801.97,0 0,5.57422 -1801.97,0 0,-5.57422 z" />
        <path
           id="path1020"
           style="fill:#f0f0f0;fill-opacity:1;fill-rule:nonzero;stroke:none"
           d="m 2457.34,812.379 1801.97,0 0,5.57031 -1801.97,0 0,-5.57031 z" />
        <path
           id="path1022"
           style="fill:#eeefef;fill-opacity:1;fill-rule:nonzero;stroke:none"
           d="m 2457.34,817.949 1801.97,0 0,5.57031 -1801.97,0 0,-5.57031 z" />
        <path
           id="path1024"
           style="fill:#eeefef;fill-opacity:1;fill-rule:nonzero;stroke:none"
           d="m 2457.34,823.52 1801.97,0 0,5.57031 -1801.97,0 0,-5.57031 z" />
        <path
           id="path1026"
           style="fill:#ededed;fill-opacity:1;fill-rule:nonzero;stroke:none"
           d="m 2457.34,829.09 1801.97,0 0,5.57422 -1801.97,0 0,-5.57422 z" />
        <path
           id="path1028"
           style="fill:#ededed;fill-opacity:1;fill-rule:nonzero;stroke:none"
           d="m 2457.34,834.664 1801.97,0 0,5.57031 -1801.97,0 0,-5.57031 z" />
        <path
           id="path1030"
           style="fill:#ececec;fill-opacity:1;fill-rule:nonzero;stroke:none"
           d="m 2457.34,840.234 1801.97,0 0,5.57031 -1801.97,0 0,-5.57031 z" />
        <path
           id="path1032"
           style="fill:#ececec;fill-opacity:1;fill-rule:nonzero;stroke:none"
           d="m 2457.34,845.805 1801.97,0 0,5.57422 -1801.97,0 0,-5.57422 z" />
        <path
           id="path1034"
           style="fill:#ebeceb;fill-opacity:1;fill-rule:nonzero;stroke:none"
           d="m 2457.34,851.379 1801.97,0 0,5.57031 -1801.97,0 0,-5.57031 z" />
        <path
           id="path1036"
           style="fill:#ebeceb;fill-opacity:1;fill-rule:nonzero;stroke:none"
           d="m 2457.34,856.949 1801.97,0 0,5.57031 -1801.97,0 0,-5.57031 z" />
        <path
           id="path1038"
           style="fill:#eaebe9;fill-opacity:1;fill-rule:nonzero;stroke:none"
           d="m 2457.34,862.52 1801.97,0 0,5.57031 -1801.97,0 0,-5.57031 z" />
        <path
           id="path1040"
           style="fill:#eaebe9;fill-opacity:1;fill-rule:nonzero;stroke:none"
           d="m 2457.34,868.09 1801.97,0 0,5.57422 -1801.97,0 0,-5.57422 z" />
        <path
           id="path1042"
           style="fill:#e9e9e8;fill-opacity:1;fill-rule:nonzero;stroke:none"
           d="m 2457.34,873.664 1801.97,0 0,5.57031 -1801.97,0 0,-5.57031 z" />
        <path
           id="path1044"
           style="fill:#e9e9e8;fill-opacity:1;fill-rule:nonzero;stroke:none"
           d="m 2457.34,879.234 1801.97,0 0,5.57031 -1801.97,0 0,-5.57031 z" />
        <path
           id="path1046"
           style="fill:#e8e8e7;fill-opacity:1;fill-rule:nonzero;stroke:none"
           d="m 2457.34,884.805 1801.97,0 0,5.57422 -1801.97,0 0,-5.57422 z" />
        <path
           id="path1048"
           style="fill:#e8e8e7;fill-opacity:1;fill-rule:nonzero;stroke:none"
           d="m 2457.34,890.379 1801.97,0 0,5.57031 -1801.97,0 0,-5.57031 z" />
        <path
           id="path1050"
           style="fill:#e7e8e6;fill-opacity:1;fill-rule:nonzero;stroke:none"
           d="m 2457.34,895.949 1801.97,0 0,5.57031 -1801.97,0 0,-5.57031 z" />
        <path
           id="path1052"
           style="fill:#e7e8e6;fill-opacity:1;fill-rule:nonzero;stroke:none"
           d="m 2457.34,901.52 1801.97,0 0,5.57031 -1801.97,0 0,-5.57031 z" />
        <path
           id="path1054"
           style="fill:#e6e6e5;fill-opacity:1;fill-rule:nonzero;stroke:none"
           d="m 2457.34,907.09 1801.97,0 0,5.57422 -1801.97,0 0,-5.57422 z" />
        <path
           id="path1056"
           style="fill:#e6e6e5;fill-opacity:1;fill-rule:nonzero;stroke:none"
           d="m 2457.34,912.664 1801.97,0 0,5.57031 -1801.97,0 0,-5.57031 z" />
        <path
           id="path1058"
           style="fill:#e5e5e4;fill-opacity:1;fill-rule:nonzero;stroke:none"
           d="m 2457.34,918.234 1801.97,0 0,5.57031 -1801.97,0 0,-5.57031 z" />
        <path
           id="path1060"
           style="fill:#e4e4e3;fill-opacity:1;fill-rule:nonzero;stroke:none"
           d="m 2457.34,923.805 0,5.57 1801.97,0.004 0,-5.574" />
        <path
           id="path1062"
           style="fill:#e4e4e3;fill-opacity:1;fill-rule:nonzero;stroke:none"
           d="m 2457.34,929.375 0,5.574 1801.97,0 0,-5.57" />
        <path
           id="path1064"
           style="fill:#e3e3e1;fill-opacity:1;fill-rule:nonzero;stroke:none"
           d="m 2457.34,934.949 1801.97,0 0,5.57031 -1801.97,0 0,-5.57031 z" />
        <path
           id="path1066"
           style="fill:#e3e3e1;fill-opacity:1;fill-rule:nonzero;stroke:none"
           d="m 2457.34,940.52 1801.97,0 0,5.57031 -1801.97,0 0,-5.57031 z" />
        <path
           id="path1068"
           style="fill:#e2e2e0;fill-opacity:1;fill-rule:nonzero;stroke:none"
           d="m 2457.34,946.09 1801.97,0 0,5.57422 -1801.97,0 0,-5.57422 z" />
        <path
           id="path1070"
           style="fill:#e2e2e0;fill-opacity:1;fill-rule:nonzero;stroke:none"
           d="m 2457.34,951.664 1801.97,0 0,5.57031 -1801.97,0 0,-5.57031 z" />
        <path
           id="path1072"
           style="fill:#e1e1df;fill-opacity:1;fill-rule:nonzero;stroke:none"
           d="m 2457.34,957.234 1801.97,0 0,5.57031 -1801.97,0 0,-5.57031 z" />
        <path
           id="path1074"
           style="fill:#e1e0df;fill-opacity:1;fill-rule:nonzero;stroke:none"
           d="m 2457.34,962.805 1801.97,0 0,5.57031 -1801.97,0 0,-5.57031 z" />
        <path
           id="path1076"
           style="fill:#e1e0df;fill-opacity:1;fill-rule:nonzero;stroke:none"
           d="m 2457.34,968.375 1801.97,0 0,5.57422 -1801.97,0 0,-5.57422 z" />
        <path
           id="path1078"
           style="fill:#e0dfdd;fill-opacity:1;fill-rule:nonzero;stroke:none"
           d="m 2457.34,973.949 1801.97,0 0,5.57031 -1801.97,0 0,-5.57031 z" />
        <path
           id="path1080"
           style="fill:#e0dfdd;fill-opacity:1;fill-rule:nonzero;stroke:none"
           d="m 2457.34,979.52 1801.97,0 0,5.57031 -1801.97,0 0,-5.57031 z" />
        <path
           id="path1082"
           style="fill:#dfdedc;fill-opacity:1;fill-rule:nonzero;stroke:none"
           d="m 2457.34,985.09 1801.97,0 0,5.57422 -1801.97,0 0,-5.57422 z" />
        <path
           id="path1084"
           style="fill:#dedcdb;fill-opacity:1;fill-rule:nonzero;stroke:none"
           d="m 2457.34,990.664 1801.97,0 0,5.57031 -1801.97,0 0,-5.57031 z" />
        <path
           id="path1086"
           style="fill:#dedcdb;fill-opacity:1;fill-rule:nonzero;stroke:none"
           d="m 2457.34,996.234 1801.97,0 0,5.5703 -1801.97,0 0,-5.5703 z" />
        <path
           id="path1088"
           style="fill:#dcdbd9;fill-opacity:1;fill-rule:nonzero;stroke:none"
           d="m 2457.34,1001.8 1801.97,0 0,5.5703 -1801.97,0 0,-5.5703 z" />
        <path
           id="path1090"
           style="fill:#dcdbd9;fill-opacity:1;fill-rule:nonzero;stroke:none"
           d="m 2457.34,1007.38 1801.97,0 0,5.5742 -1801.97,0 0,-5.5742 z" />
        <path
           id="path1092"
           style="fill:#dbdbd8;fill-opacity:1;fill-rule:nonzero;stroke:none"
           d="m 2457.34,1012.95 1801.97,0 0,5.5703 -1801.97,0 0,-5.5703 z" />
        <path
           id="path1094"
           style="fill:#dad9d7;fill-opacity:1;fill-rule:nonzero;stroke:none"
           d="m 2457.34,1018.52 1801.97,0 0,5.5703 -1801.97,0 0,-5.5703 z" />
        <path
           id="path1096"
           style="fill:#dad9d7;fill-opacity:1;fill-rule:nonzero;stroke:none"
           d="m 2457.34,1024.09 1801.97,0 0,5.5742 -1801.97,0 0,-5.5742 z" />
        <path
           id="path1098"
           style="fill:#d9d8d7;fill-opacity:1;fill-rule:nonzero;stroke:none"
           d="m 2457.34,1029.66 1801.97,0 0,5.5703 -1801.97,0 0,-5.5703 z" />
        <path
           id="path1100"
           style="fill:#d9d8d7;fill-opacity:1;fill-rule:nonzero;stroke:none"
           d="m 2457.34,1035.23 1801.97,0 0,5.5703 -1801.97,0 0,-5.5703 z" />
        <path
           id="path1102"
           style="fill:#d8d7d5;fill-opacity:1;fill-rule:nonzero;stroke:none"
           d="m 2457.34,1040.8 1801.97,0 0,5.5703 -1801.97,0 0,-5.5703 z" />
        <path
           id="path1104"
           style="fill:#d7d6d4;fill-opacity:1;fill-rule:nonzero;stroke:none"
           d="m 2457.34,1046.38 1801.97,0 0,5.5742 -1801.97,0 0,-5.5742 z" />
        <path
           id="path1106"
           style="fill:#d7d6d4;fill-opacity:1;fill-rule:nonzero;stroke:none"
           d="m 2457.34,1051.95 1801.97,0 0,5.5703 -1801.97,0 0,-5.5703 z" />
        <path
           id="path1108"
           style="fill:#d6d5d3;fill-opacity:1;fill-rule:nonzero;stroke:none"
           d="m 2457.34,1057.52 1801.97,0 0,5.5703 -1801.97,0 0,-5.5703 z" />
        <path
           id="path1110"
           style="fill:#d4d4d2;fill-opacity:1;fill-rule:nonzero;stroke:none"
           d="m 2457.34,1063.09 0,5.57 1801.97,0 0,-5.57" />
        <path
           id="path1112"
           style="fill:#d4d4d2;fill-opacity:1;fill-rule:nonzero;stroke:none"
           d="m 2457.34,1068.66 1801.97,0 0,5.5703 -1801.97,0 0,-5.5703 z" />
        <path
           id="path1114"
           style="fill:#d3d3d1;fill-opacity:1;fill-rule:nonzero;stroke:none"
           d="m 2457.34,1074.23 1801.97,0 0,5.5703 -1801.97,0 0,-5.5703 z" />
        <path
           id="path1116"
           style="fill:#d2d2d0;fill-opacity:1;fill-rule:nonzero;stroke:none"
           d="m 2457.34,1079.8 1801.97,0 0,5.5703 -1801.97,0 0,-5.5703 z" />
        <path
           id="path1118"
           style="fill:#d2d2d0;fill-opacity:1;fill-rule:nonzero;stroke:none"
           d="m 2457.34,1085.38 1801.97,0 0,5.5742 -1801.97,0 0,-5.5742 z" />
        <path
           id="path1120"
           style="fill:#d1d1cf;fill-opacity:1;fill-rule:nonzero;stroke:none"
           d="m 2457.34,1090.95 1801.97,0 0,5.5703 -1801.97,0 0,-5.5703 z" />
        <path
           id="path1122"
           style="fill:#d0cfce;fill-opacity:1;fill-rule:nonzero;stroke:none"
           d="m 2457.34,1096.52 1801.97,0 0,5.5703 -1801.97,0 0,-5.5703 z" />
        <path
           id="path1124"
           style="fill:#cfcecd;fill-opacity:1;fill-rule:nonzero;stroke:none"
           d="m 2457.34,1102.09 1801.97,0 0,5.5703 -1801.97,0 0,-5.5703 z" />
        <path
           id="path1126"
           style="fill:#cfcecd;fill-opacity:1;fill-rule:nonzero;stroke:none"
           d="m 2457.34,1107.66 1801.97,0 0,5.5742 -1801.97,0 0,-5.5742 z" />
        <path
           id="path1128"
           style="fill:#cecdcc;fill-opacity:1;fill-rule:nonzero;stroke:none"
           d="m 2457.34,1113.23 1801.97,0 0,5.5703 -1801.97,0 0,-5.5703 z" />
        <path
           id="path1130"
           style="fill:#cdccca;fill-opacity:1;fill-rule:nonzero;stroke:none"
           d="m 2457.34,1118.8 1801.97,0 0,5.5703 -1801.97,0 0,-5.5703 z" />
        <path
           id="path1132"
           style="fill:#cdccca;fill-opacity:1;fill-rule:nonzero;stroke:none"
           d="m 2457.34,1124.38 1801.97,0 0,5.5742 -1801.97,0 0,-5.5742 z" />
        <path
           id="path1134"
           style="fill:#cccbc9;fill-opacity:1;fill-rule:nonzero;stroke:none"
           d="m 2457.34,1129.95 1801.97,0 0,5.5703 -1801.97,0 0,-5.5703 z" />
        <path
           id="path1136"
           style="fill:#cac9c8;fill-opacity:1;fill-rule:nonzero;stroke:none"
           d="m 2457.34,1135.52 1801.97,0 0,5.5703 -1801.97,0 0,-5.5703 z" />
        <path
           id="path1138"
           style="fill:#cac9c8;fill-opacity:1;fill-rule:nonzero;stroke:none"
           d="m 2457.34,1141.09 1801.97,0 0,5.5703 -1801.97,0 0,-5.5703 z" />
        <path
           id="path1140"
           style="fill:#c9c8c7;fill-opacity:1;fill-rule:nonzero;stroke:none"
           d="m 2457.34,1146.66 1801.97,0 0,5.5742 -1801.97,0 0,-5.5742 z" />
        <path
           id="path1142"
           style="fill:#c8c7c6;fill-opacity:1;fill-rule:nonzero;stroke:none"
           d="m 2457.34,1152.23 1801.97,0 0,5.5703 -1801.97,0 0,-5.5703 z" />
        <path
           id="path1144"
           style="fill:#c7c6c4;fill-opacity:1;fill-rule:nonzero;stroke:none"
           d="m 2457.34,1157.8 1801.97,0 0,5.5703 -1801.97,0 0,-5.5703 z" />
        <path
           id="path1146"
           style="fill:#c7c6c4;fill-opacity:1;fill-rule:nonzero;stroke:none"
           d="m 2457.34,1163.38 1801.97,0 0,5.5742 -1801.97,0 0,-5.5742 z" />
        <path
           id="path1148"
           style="fill:#c6c5c3;fill-opacity:1;fill-rule:nonzero;stroke:none"
           d="m 2457.34,1168.95 1801.97,0 0,5.5703 -1801.97,0 0,-5.5703 z" />
        <path
           id="path1150"
           style="fill:#c5c4c2;fill-opacity:1;fill-rule:nonzero;stroke:none"
           d="m 2457.34,1174.52 1801.97,0 0,5.5703 -1801.97,0 0,-5.5703 z" />
        <path
           id="path1152"
           style="fill:#c3c2c1;fill-opacity:1;fill-rule:nonzero;stroke:none"
           d="m 2457.34,1180.09 1801.97,0 0,5.5703 -1801.97,0 0,-5.5703 z" />
        <path
           id="path1154"
           style="fill:#c3c2c1;fill-opacity:1;fill-rule:nonzero;stroke:none"
           d="m 2457.34,1185.66 1801.97,0 0,5.5742 -1801.97,0 0,-5.5742 z" />
        <path
           id="path1156"
           style="fill:#c2c1c0;fill-opacity:1;fill-rule:nonzero;stroke:none"
           d="m 2457.34,1191.23 1801.97,0 0,5.5703 -1801.97,0 0,-5.5703 z" />
        <path
           id="path1158"
           style="fill:#c1c0bf;fill-opacity:1;fill-rule:nonzero;stroke:none"
           d="m 2457.34,1196.8 1801.97,0 0,5.5703 -1801.97,0 0,-5.5703 z" />
        <path
           id="path1160"
           style="fill:#c0bfbe;fill-opacity:1;fill-rule:nonzero;stroke:none"
           d="m 2457.34,1202.38 1801.97,0 0,5.5742 -1801.97,0 0,-5.5742 z" />
        <path
           id="path1162"
           style="fill:#c0bfbe;fill-opacity:1;fill-rule:nonzero;stroke:none"
           d="m 2457.34,1207.95 1801.97,0 0,5.5703 -1801.97,0 0,-5.5703 z" />
        <path
           id="path1164"
           style="fill:#c0bebc;fill-opacity:1;fill-rule:nonzero;stroke:none"
           d="m 2457.34,1213.52 1801.97,0 0,5.5703 -1801.97,0 0,-5.5703 z" />
        <path
           id="path1166"
           style="fill:#bfbdbb;fill-opacity:1;fill-rule:nonzero;stroke:none"
           d="m 2457.34,1219.09 1801.97,0 0,5.5703 -1801.97,0 0,-5.5703 z" />
        <path
           id="path1168"
           style="fill:#bebcba;fill-opacity:1;fill-rule:nonzero;stroke:none"
           d="m 2457.34,1224.66 1801.97,0 0,5.5742 -1801.97,0 0,-5.5742 z" />
        <path
           id="path1170"
           style="fill:#bcbbb9;fill-opacity:1;fill-rule:nonzero;stroke:none"
           d="m 2457.34,1230.23 1801.97,0 0,5.5703 -1801.97,0 0,-5.5703 z" />
        <path
           id="path1172"
           style="fill:#bcbbb9;fill-opacity:1;fill-rule:nonzero;stroke:none"
           d="m 2457.34,1235.8 1801.97,0 0,5.5703 -1801.97,0 0,-5.5703 z" />
        <path
           id="path1174"
           style="fill:#bbbab8;fill-opacity:1;fill-rule:nonzero;stroke:none"
           d="m 2457.34,1241.38 0,5.57 1801.97,0 0,-5.57" />
        <path
           id="path1176"
           style="fill:#bab9b7;fill-opacity:1;fill-rule:nonzero;stroke:none"
           d="m 2457.34,1246.95 1801.97,0 0,5.5703 -1801.97,0 0,-5.5703 z" />
        <path
           id="path1178"
           style="fill:#b9b8b7;fill-opacity:1;fill-rule:nonzero;stroke:none"
           d="m 2457.34,1252.52 1801.97,0 0,5.5703 -1801.97,0 0,-5.5703 z" />
        <path
           id="path1180"
           style="fill:#b8b7b6;fill-opacity:1;fill-rule:nonzero;stroke:none"
           d="m 2457.34,1258.09 1801.97,0 0,5.5703 -1801.97,0 0,-5.5703 z" />
        <path
           id="path1182"
           style="fill:#b8b7b6;fill-opacity:1;fill-rule:nonzero;stroke:none"
           d="m 2457.34,1263.66 1801.97,0 0,5.5742 -1801.97,0 0,-5.5742 z" />
        <path
           id="path1184"
           style="fill:#b7b6b5;fill-opacity:1;fill-rule:nonzero;stroke:none"
           d="m 2457.34,1269.23 1801.97,0 0,5.5703 -1801.97,0 0,-5.5703 z" />
        <path
           id="path1186"
           style="fill:#b5b5b4;fill-opacity:1;fill-rule:nonzero;stroke:none"
           d="m 2457.34,1274.8 1801.97,0 0,5.5703 -1801.97,0 0,-5.5703 z" />
        <path
           id="path1188"
           style="fill:#b4b4b3;fill-opacity:1;fill-rule:nonzero;stroke:none"
           d="m 2457.34,1280.38 1801.97,0 0,5.5703 -1801.97,0 0,-5.5703 z" />
        <path
           id="path1190"
           style="fill:#b3b3b2;fill-opacity:1;fill-rule:nonzero;stroke:none"
           d="m 2457.34,1285.95 1801.97,0 0,5.5742 -1801.97,0 0,-5.5742 z" />
        <path
           id="path1192"
           style="fill:#b3b3b2;fill-opacity:1;fill-rule:nonzero;stroke:none"
           d="m 2457.34,1291.52 1801.97,0 0,5.5703 -1801.97,0 0,-5.5703 z" />
        <path
           id="path1194"
           style="fill:#b2b2b1;fill-opacity:1;fill-rule:nonzero;stroke:none"
           d="m 2457.34,1297.09 1801.97,0 0,5.5703 -1801.97,0 0,-5.5703 z" />
        <path
           id="path1196"
           style="fill:#b1b1b0;fill-opacity:1;fill-rule:nonzero;stroke:none"
           d="m 2457.34,1302.66 1801.97,0 0,5.5742 -1801.97,0 0,-5.5742 z" />
        <path
           id="path1198"
           style="fill:#b0b0af;fill-opacity:1;fill-rule:nonzero;stroke:none"
           d="m 2457.34,1308.23 1801.97,0 0,5.5703 -1801.97,0 0,-5.5703 z" />
        <path
           id="path1200"
           style="fill:#b0afae;fill-opacity:1;fill-rule:nonzero;stroke:none"
           d="m 2457.34,1313.8 1801.97,0 0,5.5703 -1801.97,0 0,-5.5703 z" />
        <path
           id="path1202"
           style="fill:#aeaead;fill-opacity:1;fill-rule:nonzero;stroke:none"
           d="m 2457.34,1319.38 1801.97,0 0,5.5703 -1801.97,0 0,-5.5703 z" />
        <path
           id="path1204"
           style="fill:#adadac;fill-opacity:1;fill-rule:nonzero;stroke:none"
           d="m 2457.34,1324.95 1801.97,0 0,5.5742 -1801.97,0 0,-5.5742 z" />
        <path
           id="path1206"
           style="fill:#adadac;fill-opacity:1;fill-rule:nonzero;stroke:none"
           d="m 2457.34,1330.52 1801.97,0 0,5.5703 -1801.97,0 0,-5.5703 z" />
        <path
           id="path1208"
           style="fill:#acacab;fill-opacity:1;fill-rule:nonzero;stroke:none"
           d="m 2457.34,1336.09 1801.97,0 0,5.5703 -1801.97,0 0,-5.5703 z" />
        <path
           id="path1210"
           style="fill:#ababaa;fill-opacity:1;fill-rule:nonzero;stroke:none"
           d="m 2457.34,1341.66 1801.97,0 0,5.5742 -1801.97,0 0,-5.5742 z" />
        <path
           id="path1212"
           style="fill:#aaaaa9;fill-opacity:1;fill-rule:nonzero;stroke:none"
           d="m 2457.34,1347.23 1801.97,0 0,5.5703 -1801.97,0 0,-5.5703 z" />
        <path
           id="path1214"
           style="fill:#a9a9a8;fill-opacity:1;fill-rule:nonzero;stroke:none"
           d="m 2457.34,1352.8 1801.97,0 0,5.5703 -1801.97,0 0,-5.5703 z" />
        <path
           id="path1216"
           style="fill:#a7a7a6;fill-opacity:1;fill-rule:nonzero;stroke:none"
           d="m 2457.34,1358.38 1801.97,0 0,5.5703 -1801.97,0 0,-5.5703 z" />
        <path
           id="path1218"
           style="fill:#a6a6a5;fill-opacity:1;fill-rule:nonzero;stroke:none"
           d="m 2457.34,1363.95 1801.97,0 0,5.5742 -1801.97,0 0,-5.5742 z" />
        <path
           id="path1220"
           style="fill:#a6a5a4;fill-opacity:1;fill-rule:nonzero;stroke:none"
           d="m 2457.34,1369.52 1801.97,0 0,5.5703 -1801.97,0 0,-5.5703 z" />
        <path
           id="path1222"
           style="fill:#a6a5a4;fill-opacity:1;fill-rule:nonzero;stroke:none"
           d="m 2457.34,1375.09 1801.97,0 0,5.5703 -1801.97,0 0,-5.5703 z" />
        <path
           id="path1224"
           style="fill:#a4a4a3;fill-opacity:1;fill-rule:nonzero;stroke:none"
           d="m 2457.34,1380.66 1801.97,0 0,5.5742 -1801.97,0 0,-5.5742 z" />
        <path
           id="path1226"
           style="fill:#a3a3a2;fill-opacity:1;fill-rule:nonzero;stroke:none"
           d="m 2457.34,1386.23 1801.97,0 0,5.5703 -1801.97,0 0,-5.5703 z" />
        <path
           id="path1228"
           style="fill:#a2a2a0;fill-opacity:1;fill-rule:nonzero;stroke:none"
           d="m 2457.34,1391.8 1801.97,0 0,5.5703 -1801.97,0 0,-5.5703 z" />
        <path
           id="path1230"
           style="fill:#a0a19f;fill-opacity:1;fill-rule:nonzero;stroke:none"
           d="m 2457.34,1397.38 1801.97,0 0,5.5703 -1801.97,0 0,-5.5703 z" />
        <path
           id="path1232"
           style="fill:#9f9f9e;fill-opacity:1;fill-rule:nonzero;stroke:none"
           d="m 2457.34,1402.95 1801.97,0 0,5.5742 -1801.97,0 0,-5.5742 z" />
        <path
           id="path1234"
           style="fill:#9e9e9d;fill-opacity:1;fill-rule:nonzero;stroke:none"
           d="m 2457.34,1408.52 1801.97,0 0,5.5703 -1801.97,0 0,-5.5703 z" />
        <path
           id="path1236"
           style="fill:#9d9d9c;fill-opacity:1;fill-rule:nonzero;stroke:none"
           d="m 2457.34,1414.09 1801.97,0 0,5.5703 -1801.97,0 0,-5.5703 z" />
        <path
           id="path1238"
           style="fill:#9b9c9b;fill-opacity:1;fill-rule:nonzero;stroke:none"
           d="m 2457.34,1419.66 0,5.57 1801.97,0 0,-5.57" />
        <path
           id="path1240"
           style="fill:#9a9b9a;fill-opacity:1;fill-rule:nonzero;stroke:none"
           d="m 2457.34,1425.23 1801.97,0 0,5.5703 -1801.97,0 0,-5.5703 z" />
        <path
           id="path1242"
           style="fill:#999a99;fill-opacity:1;fill-rule:nonzero;stroke:none"
           d="m 2457.34,1430.8 1801.97,0 0,5.5703 -1801.97,0 0,-5.5703 z" />
        <path
           id="path1244"
           style="fill:#989999;fill-opacity:1;fill-rule:nonzero;stroke:none"
           d="m 2457.34,1436.38 1801.97,0 0,5.5703 -1801.97,0 0,-5.5703 z" />
        <path
           id="path1246"
           style="fill:#989999;fill-opacity:1;fill-rule:nonzero;stroke:none"
           d="m 2457.34,1441.95 1801.97,0 0,5.5742 -1801.97,0 0,-5.5742 z" />
        <path
           id="path1248"
           style="fill:#979898;fill-opacity:1;fill-rule:nonzero;stroke:none"
           d="m 2457.34,1447.52 1801.97,0 0,5.5703 -1801.97,0 0,-5.5703 z" />
        <path
           id="path1250"
           style="fill:#969797;fill-opacity:1;fill-rule:nonzero;stroke:none"
           d="m 2457.34,1453.09 1801.97,0 0,5.5703 -1801.97,0 0,-5.5703 z" />
        <path
           id="path1252"
           style="fill:#959696;fill-opacity:1;fill-rule:nonzero;stroke:none"
           d="m 2457.34,1458.66 1801.97,0 0,5.5703 -1801.97,0 0,-5.5703 z" />
        <path
           id="path1254"
           style="fill:#949595;fill-opacity:1;fill-rule:nonzero;stroke:none"
           d="m 2457.34,1464.23 1801.97,0 0,5.5742 -1801.97,0 0,-5.5742 z" />
        <path
           id="path1256"
           style="fill:#939494;fill-opacity:1;fill-rule:nonzero;stroke:none"
           d="m 2457.34,1469.8 1801.97,0 0,5.5703 -1801.97,0 0,-5.5703 z" />
        <path
           id="path1258"
           style="fill:#929493;fill-opacity:1;fill-rule:nonzero;stroke:none"
           d="m 2457.34,1475.38 1801.97,0 0,5.5703 -1801.97,0 0,-5.5703 z" />
        <path
           id="path1260"
           style="fill:#919392;fill-opacity:1;fill-rule:nonzero;stroke:none"
           d="m 2457.34,1480.95 1801.97,0 0,5.5742 -1801.97,0 0,-5.5742 z" />
        <path
           id="path1262"
           style="fill:#909191;fill-opacity:1;fill-rule:nonzero;stroke:none"
           d="m 2457.34,1486.52 1801.97,0 0,5.5703 -1801.97,0 0,-5.5703 z" />
        <path
           id="path1264"
           style="fill:#909191;fill-opacity:1;fill-rule:nonzero;stroke:none"
           d="m 2457.34,1492.09 1801.97,0 0,5.5703 -1801.97,0 0,-5.5703 z" />
        <path
           id="path1266"
           style="fill:#8f8f8f;fill-opacity:1;fill-rule:nonzero;stroke:none"
           d="m 2457.34,1497.66 1801.97,0 0,5.5703 -1801.97,0 0,-5.5703 z" />
        <path
           id="path1268"
           style="fill:#8e8f8e;fill-opacity:1;fill-rule:nonzero;stroke:none"
           d="m 2457.34,1503.23 1801.97,0 0,5.5742 -1801.97,0 0,-5.5742 z" />
        <path
           id="path1270"
           style="fill:#8d8d8d;fill-opacity:1;fill-rule:nonzero;stroke:none"
           d="m 2457.34,1508.8 1801.97,0 0,5.5703 -1801.97,0 0,-5.5703 z" />
        <path
           id="path1272"
           style="fill:#8c8c8c;fill-opacity:1;fill-rule:nonzero;stroke:none"
           d="m 2457.34,1514.38 1801.97,0 0,5.5703 -1801.97,0 0,-5.5703 z" />
        <path
           id="path1274"
           style="fill:#8a8c8b;fill-opacity:1;fill-rule:nonzero;stroke:none"
           d="m 2457.34,1519.95 1801.97,0 0,5.5742 -1801.97,0 0,-5.5742 z" />
        <path
           id="path1276"
           style="fill:#8a8b8a;fill-opacity:1;fill-rule:nonzero;stroke:none"
           d="m 2457.34,1525.52 1801.97,0 0,5.5703 -1801.97,0 0,-5.5703 z" />
        <path
           id="path1278"
           style="fill:#888a8a;fill-opacity:1;fill-rule:nonzero;stroke:none"
           d="m 2457.34,1531.09 1801.97,0 0,5.5703 -1801.97,0 0,-5.5703 z" />
        <path
           id="path1280"
           style="fill:#878888;fill-opacity:1;fill-rule:nonzero;stroke:none"
           d="m 2457.34,1536.66 1801.97,0 0,5.5703 -1801.97,0 0,-5.5703 z" />
        <path
           id="path1282"
           style="fill:#878888;fill-opacity:1;fill-rule:nonzero;stroke:none"
           d="m 2457.34,1542.23 0,80910.37 1801.97,0 0,-80910.37" />
      </g>
    </g>
    <path
       id="path1284"
       style="fill:#100f0d;fill-opacity:1;fill-rule:nonzero;stroke:none"
       d="m 501.28615,283.1289 c 0,0 -3.3775,-14.87125 9.46,-16.55875 12.83875,-1.69 14.19125,2.7025 16.55625,2.7025 2.365,0 15.20375,3.37875 11.48625,18.25 -3.715,14.86625 -4.72875,27.03 -2.025,28.0425 2.7025,1.01375 6.75625,2.70375 8.445,3.715 1.69125,1.015 19.25875,1.3525 21.96375,1.3525 2.70125,0 14.86375,-4.3925 20.94625,-5.74375 6.08125,-1.35125 23.9875,-13.85375 28.0425,-16.89375 4.055,-3.04125 6.41875,-9.1225 6.41875,-9.1225 0,0 0.33875,-17.5725 7.7725,-21.62625 3.37875,0 4.0525,2.365 3.37875,3.37875 0,-0.34 12.33375,-1.86 9.12125,4.56 0.67625,2.02875 1.015,2.53375 -0.84375,3.72 0.505,2.0275 0.84375,4.39375 -0.67625,4.73 0.33875,0 -0.16875,3.21125 -1.52,5.575 -1.35125,2.3675 -4.90125,8.28 -6.59,9.45875 -1.6875,1.18625 1.015,5.2375 0.34,6.76 -0.67625,1.52 -18.07625,19.26 -19.42875,21.11625 -1.35125,1.86 -10.97875,10.98125 -13.6825,11.15 -2.70375,0.16875 -26.01375,7.7725 -27.53625,12.67 -1.52,4.8975 -3.21,29.9 -0.67625,35.3075 2.53375,5.40625 5.575,14.8675 7.0925,15.71 -0.84125,1.52125 -2.02375,2.7025 -1.5175,3.71625 0.5075,1.015 11.655,24.15875 14.5275,37.16625 2.8725,13.0075 8.78625,44.7675 9.62875,54.73375 0.8475,9.9675 3.5475,20.105 4.7325,21.96125 1.18125,1.86125 -0.33875,19.26125 -2.19625,32.43375 -1.85875,13.17875 -0.845,35.47625 0.33625,39.025 1.1825,3.54875 2.1975,5.2375 1.86,10.6425 -0.34,5.4075 -1.015,9.8025 -2.705,10.47625 1.69,1.18125 3.54875,4.73 0,7.2625 -3.54625,2.535 -9.62875,2.87375 -13.345,1.69 -3.7175,-1.18375 -3.88625,-5.745 -2.87125,-7.09625 0.16875,-0.675 -2.70375,-1.1825 -3.21,-1.52 -0.50625,-0.33625 -0.16875,-16.215 -0.50625,-22.6375 -0.33875,-6.41875 -3.54875,-46.45625 -2.02875,-51.015 1.52125,-4.565 0.17125,-8.6175 0.17125,-8.6175 0,0 -16.72625,-29.5625 -18.7525,-35.645 -2.0275,-6.0825 -13.8525,-16.555 -14.8675,-18.9225 -1.01125,-2.3625 -12.33125,14.36 -14.86625,21.28875 -2.8825,7.87625 -9.7975,41.55625 -12.83875,56.085 -1.35375,6.4675 -10.47375,40.87875 -10.81125,43.9225 -0.3375,3.04125 -7.265,2.195 -6.92625,2.86875 0.33875,0.6775 -3.35375,13.7125 -6.58875,16.73 -5.06875,4.7275 -12.33375,2.19375 -15.20375,0.6725 -2.8725,-1.52 -5.575,-5.2375 3.21,-16.8925 0,-1.18125 -1.8575,-2.365 -1.8575,-2.365 0,0 7.6025,-18.0775 7.6025,-26.355 0,-8.275 4.7275,-39.36125 5.235,-47.63875 0.5075,-8.27875 3.5475,-33.785 9.7975,-49.33 6.25125,-15.54 11.8275,-44.595 12.50125,-47.3 0.67625,-2.7025 -1.68875,0.50625 -2.8725,0.17 -1.18,-0.34 2.19875,-15.035 1.3525,-18.24625 -0.845,-3.2075 -5.23625,-25.50625 -7.6025,-29.9025 -2.36375,-4.39 -5.74375,-6.4175 -6.755,-6.4175 -1.015,0 3.37625,7.095 0,7.095 -3.38125,0 -18.4075,22.42375 -19.25875,22.2975 -8.10875,-1.17875 -34.125,-21.45375 -40.20625,-26.0125 -5.515,-4.13625 -14.02125,-5.9125 -6.2525,-12.6725 7.77125,-6.75625 18.41375,-11.14875 20.9475,-12.83625 2.53625,-1.69 13.00875,-5.91375 16.725,-6.2525 3.7175,-0.3375 13.8525,-4.8975 16.72375,-5.7425 2.87375,-0.845 16.895,-9.29125 19.09125,-14.6975 2.19625,-5.40625 3.54625,-9.9675 2.36375,-10.98 -1.1825,-1.015 -5.7425,-4.39375 -7.93875,-11.82625 -2.53375,-3.885 -2.70375,-4.055 -1.69,-8.61625 -0.67375,-2.70375 -2.36375,-6.08 -1.1825,-8.95375" />
    <path
       id="path1286"
       style="fill:#80b3ff;fill-opacity:1"
       d="m 482.87365,318.94265 c 0,0 4.8975,-8.61375 18.58125,-5.0675 9.8,1.35125 18.4125,8.11 18.24625,15.54125 -0.16875,5.745 -0.50625,6.41875 1.18125,6.7575 1.69,0.3375 8.785,3.7175 8.10875,9.9675 0,2.8725 7.435,3.3775 10.305,2.7025 2.8725,-0.67625 6.08125,-6.92375 10.81125,-8.9525 4.73125,-2.0275 15.205,-4.22125 20.10375,-7.93875 4.89875,-3.71625 13.00875,-9.12375 15.88125,-9.7975 1.52,-1.3525 15.20375,-13.00875 18.41375,-16.38875 3.20875,-3.3775 16.89125,-14.52625 16.89125,-16.3875 0,-1.85625 0.51,-5.74375 0.67625,-10.30625 0.16875,-4.56125 3.88625,-11.82625 6.92625,-13.18 3.04125,-1.35 1.69,3.21125 1.3525,4.3925 0.3375,0.5075 3.755,-0.94625 5.57375,-1.8575 2.365,-1.18125 7.09625,-2.535 7.435,-0.6775 0.50625,1.69125 -2.705,3.88875 -3.54875,5.07 -0.845,1.18375 -2.19625,9.465 -3.2125,12.50625 -1.01125,3.0425 -4.05125,8.44625 -6.755,11.3175 -2.705,2.8725 -17.90625,21.96125 -21.96125,26.015 -4.05625,4.05625 -20.77875,15.03625 -24.83375,18.07625 -4.055,3.0425 -19.09125,12.3325 -22.97375,17.2325 -3.88875,4.89875 -7.43375,37.84 -3.04125,49.665 4.3925,11.82625 16.38625,33.61875 17.06375,48.315 0.335,9.12375 -0.50875,17.56875 1.34875,26.86125 1.86,9.29125 12.5025,35.815 14.02125,42.4025 1.5225,6.58875 1.69,13.34625 8.11125,20.9475 6.4175,7.6025 17.06,14.02375 23.985,14.02375 6.92875,0 18.24625,7.0925 12.16625,10.30125 -6.08125,3.21125 -10.81375,5.57625 -13.345,8.7875 -2.535,3.20875 -2.8725,4.3925 -7.0975,4.2225 -4.22125,-0.17 -1.52,7.09375 -5.235,7.2625 -3.71875,0.17125 -7.94125,10.305 -17.73875,10.8125 -5.9125,1.18375 -4.055,6.08125 -1.69,8.4475 2.36625,2.36375 5.575,9.96625 3.71625,11.65625 -1.8575,1.69 -6.9275,3.21 -13.34625,2.87125 -1.6875,-0.505 -3.21,-2.195 -3.04,-6.25125 -0.67625,-1.0125 -5.57375,-3.20875 -8.27875,-0.84375 -2.70125,2.36625 -8.445,3.04125 -11.99375,1.35125 -3.54625,-1.68875 -5.575,0 -9.9675,0.3375 -4.39125,0.33875 -10.47375,2.705 -12.33125,-1.68875 -1.8575,-4.3925 -6.25,-5.91375 -11.99375,-4.3925 -5.745,1.52125 -6.92625,0.5075 -9.9675,-0.67625 -3.04125,-1.1825 -3.885,2.1975 -5.74375,2.03 -1.85875,-0.17125 -7.09625,-2.3675 -8.61625,-3.71875 -1.52,-1.35125 -2.5325,8.10875 -5.575,11.15125 -3.04,3.0375 -10.6425,9.96625 -11.825,6.08 -1.1825,-3.88375 -3.5475,-13.85125 0.84375,-21.6225 0.17,-1.8575 -7.6025,-1.6875 -10.98,-4.39375 -3.37625,-2.7025 -9.79625,-4.56 -12.50125,-2.7025 -2.7,1.8575 -14.52625,8.44625 -14.52625,2.535 -2.0275,1.52125 -3.885,-0.6775 -7.43375,-2.0275 -3.5475,-1.35 -7.095,-0.51 -4.39375,-8.78375 2.705,-8.2775 4.7325,-10.8125 13.85375,-26.18625 9.12375,-15.3725 34.12375,-46.62625 42.235,-60.31 8.1075,-13.6825 16.8925,-36.32125 19.0875,-53.0425 2.1975,-16.725 3.88625,-41.8975 2.53375,-50.68 -1.35125,-8.7875 -1.18125,-16.21875 -8.61375,-17.57125 -7.435,-1.35 -30.74625,-1.85625 -39.53125,-2.70125 -8.785,-0.845 -15.88125,-0.17 -22.3,-2.53375 -6.41875,-2.36625 -14.18875,-4.73125 -7.265,-11.99625 6.92625,-7.265 25.3425,-14.36125 27.36875,-17.0625 2.0275,-2.7025 7.76875,-8.27875 9.9675,-7.2625 1.51875,0.845 6.4175,2.36375 5.91125,4.89625 0.50625,0.84875 6.59,0.84875 8.955,0.68 2.36375,-0.1725 4.2225,2.7 -4.225,4.22125 -4.73,0.33625 -5.06625,1.35125 -6.755,2.0275 -1.69125,0.6775 -5.74375,0.84375 -7.26625,0.6775 -1.52,-0.17375 -9.46125,9.29 -11.4875,9.6275 4.9,1.015 16.05,1.68875 17.73875,1.015 1.68875,-0.67875 17.23,-2.19625 21.7925,-1.6925 5.0675,-0.1675 5.91125,-2.36375 8.4475,-3.2075 2.53375,-0.84625 4.0525,-0.67625 4.39,-3.54875 0.33875,-2.87125 -1.68625,-2.0275 -3.88375,-2.53375 -2.19625,-0.50625 -13.515,-3.54625 -16.725,-12.1625 -0.6775,-2.87375 -11.3175,-6.08125 -2.02625,-22.63875" />
    <path
       id="path1288"
       style="fill:#80b3ff;fill-opacity:1"
       d="m 451.7899,379.2539 c 0,0 -5.2375,3.20875 -0.67625,8.615 0,2.8725 -2.53625,38.1775 -15.03625,51.0175 1.18375,4.39125 1.18375,3.55 4.39375,6.25 3.2075,2.705 7.26375,7.265 4.05375,12.3325 -3.21,5.0675 -6.42125,4.89875 -3.21,8.7825 3.21,3.8875 6.925,8.95625 3.21,15.0375 -3.71625,6.08125 -3.88625,7.77 -2.02625,10.13625 1.85625,2.36375 -3.38,2.19625 0,4.56 3.37875,2.36625 7.43125,1.1825 7.43125,7.77125 0,6.5875 3.04125,17.9075 -0.16875,20.78 -3.20875,2.87 -6.925,10.4725 -1.0125,10.30625 5.91125,-0.17 5.405,-4.9 10.13625,-7.43625 4.72875,-2.53125 1.01375,-7.77 -0.5075,-14.52625 -1.52125,-6.7575 -0.84375,-27.03 -1.3525,-41.05125 -0.505,-14.0225 -0.16875,-75.345 0.845,-83.11625 3.03875,5.23875 17.40125,33.95625 25.1725,46.11875 7.77,12.16375 24.495,41.72625 38.68375,42.74 14.19125,1.01625 29.0575,-1.85625 33.95875,-15.035 4.89875,-13.17625 14.69625,-22.8075 21.115,-25.84375 6.41875,-3.04375 11.995,-10.14 16.8925,-12.84 4.89875,-2.705 5.40625,-12.67125 11.32,-19.7675 5.91125,-7.09375 6.755,-11.14875 9.63,-13.34375 2.87125,-2.1975 2.87125,0.1675 5.9125,0.1675 3.03875,0 7.76875,-22.12875 9.62875,-45.2725 1.8575,-23.14625 0.33625,-43.755 0.33625,-48.485 0,-4.7325 -1.1825,-0.67625 -2.19625,2.87125 -1.01125,3.54625 -4.39125,14.53 -7.6,19.59625 -3.21,5.07 -18.75375,25.68125 -15.20625,31.92625 3.55,6.25 8.61625,6.4225 2.70375,11.48875 -5.9125,5.07 -13.17625,16.5575 -18.4125,18.0775 -5.2375,1.51875 -25.34125,9.9675 -29.7325,14.69625 -4.39125,4.7325 -6.7575,8.11 -12.16375,8.4475 -5.40625,0.3375 13.17625,2.7025 26.18625,-1.35125 13.00625,-4.05375 21.285,-4.3925 15.2025,0.1675 -6.0825,4.56125 -30.24,33.62125 -44.0925,36.6575 -13.8525,3.04125 -31.92875,-5.40375 -50.005,-21.62125 -18.07375,-16.21875 -30.91375,-25.34 -32.09625,-29.22375 -1.1825,-3.88875 -2.0275,-10.98125 -11.3175,-9.63" />
    <path
       id="path1290"
       style="fill:#100f0d;fill-opacity:1;fill-rule:nonzero;stroke:none"
       d="m 494.5299,399.69265 c 0,0 8.95375,4.05375 14.69625,2.87375 5.7425,-1.18375 16.21875,-4.055 16.8925,-5.2375 0.6775,-1.1825 5.07,-3.5475 0.6775,-4.22375 -0.84625,-1.18375 -0.16875,-4.3925 -4.5625,-3.7175 -4.3925,0.6775 -9.12125,0.34 -9.12125,0.34 0,0 1.85625,-4.22375 -0.845,-4.3925 -2.7025,-0.16875 -7.09625,-0.845 -9.1225,-2.02875 -2.02625,-1.1825 -6.7575,-0.84375 -9.29125,-0.84375 -2.53375,0 -13.68375,-0.675 -14.5275,-0.84375 -0.84625,-0.1675 -3.37875,16.0475 1.18,18.92125 4.5625,2.87 9.29375,4.55875 10.47625,4.0525 1.18125,-0.5075 3.5475,-4.9 3.5475,-4.9" />
    <path
       id="path1292"
       style="fill:#100f0d;fill-opacity:1;fill-rule:nonzero;stroke:none"
       d="m 641.16365,271.46765 c 0,0 -7.77125,2.02625 -7.095,4.90125 1.52,1.01375 -3.54875,2.1975 -0.84625,4.73375 0.6775,1.52 -3.71625,2.8725 -0.67375,5.235 0,1.5225 -3.0425,4.5625 0.3375,4.225 3.3775,-0.3375 7.09375,-4.89625 7.09375,-4.89625 0,0 1.85875,-14.19875 1.18375,-14.19875" />
  </g>
</svg>
