<?xml version="1.0" ?><svg height="128" id="svg8" version="1.1" viewBox="0 0 33.866666 33.866668" width="128" xmlns="http://www.w3.org/2000/svg" xmlns:svg="http://www.w3.org/2000/svg" xmlns:xlink="http://www.w3.org/1999/xlink"><defs id="defs2"><clipPath clipPathUnits="userSpaceOnUse" id="clipPath5292"><ellipse cx="554.68481" cy="1234.8002" id="ellipse5294" rx="46.906162" ry="46.90797" style="display:inline;opacity:0.469;fill:#ffaaaa;fill-rule:evenodd;stroke:#333333;stroke-width:3.5625;stroke-linecap:round;stroke-linejoin:round;stroke-miterlimit:4;stroke-dasharray:none;stroke-dashoffset:6.5999999;stroke-opacity:1"/></clipPath><clipPath clipPathUnits="userSpaceOnUse" id="clipPath6174"><ellipse cx="128.2972" cy="1416.0679" id="ellipse6176" rx="55.76445" ry="55.766594" style="display:inline;opacity:0.572;fill:#ff9696;fill-opacity:1;fill-rule:evenodd;stroke:#333333;stroke-width:4.21448183;stroke-linecap:round;stroke-linejoin:round;stroke-miterlimit:4;stroke-dasharray:none;stroke-dashoffset:6.5999999;stroke-opacity:1"/></clipPath><clipPath clipPathUnits="userSpaceOnUse" id="clipPath5123"><ellipse cx="68.499504" cy="1656.6876" id="ellipse5125" rx="71.409416" ry="71.223892" style="display:inline;opacity:0.45199998;fill:#ffe680;fill-rule:evenodd;stroke:none;stroke-width:4.21448183;stroke-linecap:round;stroke-linejoin:round;stroke-miterlimit:4;stroke-dasharray:none;stroke-dashoffset:6.5999999;stroke-opacity:1"/></clipPath><clipPath clipPathUnits="userSpaceOnUse" id="clipPath8754"><ellipse cx="205.48343" cy="1298.3982" id="ellipse8756" rx="78.18396" ry="83.010139" style="display:inline;opacity:0.419;fill:#ffaaaa;fill-opacity:1;fill-rule:evenodd;stroke:#333333;stroke-width:4.21448183;stroke-linecap:round;stroke-linejoin:round;stroke-miterlimit:4;stroke-dasharray:none;stroke-dashoffset:6.5999999;stroke-opacity:1"/></clipPath><clipPath clipPathUnits="userSpaceOnUse" id="clipPath11474"><ellipse cx="230.12242" cy="1486.3468" id="ellipse11476" rx="55.76445" ry="55.766594" style="display:inline;opacity:0.32099998;fill:#efb5e3;fill-opacity:1;fill-rule:evenodd;stroke:none;stroke-width:4.21448183;stroke-linecap:round;stroke-linejoin:round;stroke-miterlimit:4;stroke-dasharray:none;stroke-dashoffset:6.5999999;stroke-opacity:1"/></clipPath><clipPath clipPathUnits="userSpaceOnUse" id="clipPath5143"><ellipse cx="209.94763" cy="1573.1123" id="ellipse5145" rx="55.764446" ry="55.766594" style="display:inline;opacity:0.43500001;fill:#ffaaaa;fill-rule:evenodd;stroke:#333333;stroke-width:4.21448183;stroke-linecap:round;stroke-linejoin:round;stroke-miterlimit:4;stroke-dasharray:none;stroke-dashoffset:6.5999999;stroke-opacity:1"/></clipPath></defs><g id="layer1" transform="translate(0,-263.13332)"><g id="g8456" transform="matrix(0.1919241,0,0,0.1919241,-92.950296,-1.600301)"><path d="m 596.33203,1525.7402 a 8.0083386,8.0083386 0 0 0 -0.51562,0.012 l -24.63672,1.3535 a 8.0083386,8.0083386 0 0 0 -7.44141,9.416 c 0,0 0.4626,2.6362 1.50781,5.6601 1.04522,3.024 1.88033,7.1098 7.35352,10.2911 2.83116,1.6456 6.07827,3.0032 9.82617,3.1503 3.74791,0.1472 7.58321,-1.13 10.7168,-3.1855 4.72011,-3.096 6.49809,-6.96 8.09961,-10.1172 1.60151,-3.1572 2.56445,-5.9082 2.56445,-5.9082 a 8.0083386,8.0083386 0 0 0 -7.47461,-10.6719 z" id="path8439" style="fill:#000000;fill-opacity:1;fill-rule:evenodd;stroke:none;stroke-width:4.125;stroke-linecap:butt;stroke-linejoin:miter;stroke-miterlimit:4;stroke-dasharray:none;stroke-opacity:1" transform="translate(4.6687331e-6,-2.1863916e-6)" xlink:href="#path4872"/><path d="m 581.48438,1403.4746 c -1.71438,-0.066 -3.44442,-0.01 -5.17774,0.1856 -16.59291,1.8395 -28.6097,11.5269 -36.18945,23.3144 -7.57976,11.7875 -11.49101,25.6655 -14.18555,38.2285 -6.66576,31.0784 10.34016,61.361 35.07422,75.1348 13.28375,7.3974 28.58185,6.1426 41.34375,0.7637 12.7619,-5.379 23.62495,-14.7459 29.28906,-26.2383 9.80276,-19.8897 8.93678,-43.9718 2.34375,-64.0156 -3.56322,-10.8328 -10.42885,-21.919 -19.40234,-30.875 -8.9735,-8.9561 -20.26014,-16.0058 -33.09375,-16.4981 a 7.9261632,7.9261632 0 0 0 -0.002,0 z" id="path8437" style="fill:#000000;fill-rule:evenodd;stroke:none;stroke-width:4.125;stroke-linecap:butt;stroke-linejoin:miter;stroke-miterlimit:4;stroke-dasharray:none;stroke-opacity:1" transform="translate(4.6687331e-6,-2.1863916e-6)" xlink:href="#path4870"/><path d="m 571.61921,1535.1025 c 0,0 1.51816,8.4202 5.00432,10.4465 4.33239,2.5183 7.93464,2.9427 12.12585,0.1935 4.26121,-2.795 7.50648,-11.9943 7.50648,-11.9943 z" id="path4872" style="fill:#f3cd36;fill-opacity:1;fill-rule:evenodd;stroke:none;stroke-width:4.125;stroke-linecap:butt;stroke-linejoin:miter;stroke-miterlimit:4;stroke-dasharray:none;stroke-opacity:1"/><path d="m 579.11523,1379.5566 c -4.7471,-0 -9.0517,4.3728 -8.96679,9.1192 0.15683,8.7945 0.92123,17.08 0.15039,23.998 a 6.896535,6.896535 0 0 0 0,0.01 c -0.56796,5.1335 4.17915,10.1845 9.33789,9.9336 a 6.896535,6.896535 0 0 0 0.004,-0 l 3.94532,-0.1933 a 6.896535,6.896535 0 0 0 0.002,0 c 4.77065,-0.2348 8.86186,-4.8826 8.49023,-9.6446 -0.62493,-7.992 -1.04983,-15.8619 -1.95117,-24.0722 v -0 c -0.31273,-2.8492 -2.08445,-5.5006 -4.59765,-6.8789 a 6.896535,6.896535 0 0 0 -0.002,0 l -2.11718,-1.1601 c -1.30895,-0.7175 -2.80029,-1.1013 -4.29297,-1.1036 a 6.896535,6.896535 0 0 0 -0.002,0 z" id="path8441" style="color:#000000;font-style:normal;font-variant:normal;font-weight:normal;font-stretch:normal;font-size:medium;line-height:normal;font-family:sans-serif;font-variant-ligatures:normal;font-variant-position:normal;font-variant-caps:normal;font-variant-numeric:normal;font-variant-alternates:normal;font-feature-settings:normal;text-indent:0;text-align:start;text-decoration:none;text-decoration-line:none;text-decoration-style:solid;text-decoration-color:#000000;letter-spacing:normal;word-spacing:normal;text-transform:none;writing-mode:lr-tb;direction:ltr;text-orientation:mixed;dominant-baseline:auto;baseline-shift:baseline;text-anchor:start;white-space:normal;shape-padding:0;clip-rule:nonzero;display:inline;overflow:visible;visibility:visible;opacity:1;isolation:auto;mix-blend-mode:normal;color-interpolation:sRGB;color-interpolation-filters:linearRGB;solid-color:#000000;solid-opacity:1;vector-effect:none;fill:#000000;fill-opacity:1;fill-rule:evenodd;stroke:none;stroke-width:4.125;stroke-linecap:round;stroke-linejoin:round;stroke-miterlimit:4;stroke-dasharray:none;stroke-dashoffset:0;stroke-opacity:1;color-rendering:auto;image-rendering:auto;shape-rendering:auto;text-rendering:auto;enable-background:accumulate" transform="translate(4.6687331e-6,-2.1863916e-6)" xlink:href="#path4878"/><path d="m 559.82617,1389.293 c -4.92068,-0.2206 -10.45882,0.5766 -16.24609,2.8457 -10.75846,4.2182 -18.3908,14.0716 -25.13281,22.8457 -6.74202,8.774 -11.63868,16.8008 -11.63868,16.8008 a 8.4344791,8.4344791 0 0 0 12.08594,11.2558 c -0.81853,0.6205 -0.87315,0.4325 -0.26172,0.2793 0.83752,-0.2098 2.37253,-0.502 4.25196,-0.7949 3.75884,-0.5859 8.96029,-1.2222 14.54882,-2.0137 11.17708,-1.583 23.46394,-3.099 32.74024,-8.6582 6.72731,-4.0315 9.96285,-10.2402 12.16992,-15.1719 2.20707,-4.9316 3.22266,-9.2168 3.22266,-9.2168 a 8.4344791,8.4344791 0 0 0 -1.96094,-7.6308 c 0,0 -9.0143,-9.8782 -23.77735,-10.541 z" id="path8443" style="fill:#000000;fill-rule:evenodd;stroke:none;stroke-width:4.125;stroke-linecap:round;stroke-linejoin:round;stroke-miterlimit:4;stroke-dasharray:none;stroke-opacity:1" transform="translate(0.51470467,-0.12867219)" xlink:href="#path4874"/><path d="m 577.17995,1411.537 c -28.27268,3.1344 -38.28566,31.0211 -43.49908,55.3282 -5.84286,27.2417 9.48157,54.4649 31.18075,66.5486 21.34261,11.8852 50.52744,-3.51 59.66689,-22.0539 8.54848,-17.3448 7.96981,-39.6586 1.92473,-58.0366 -6.60893,-20.0922 -27.9131,-44.1545 -49.27329,-41.7863 z" id="path4870" style="fill:#ffdd55;fill-rule:evenodd;stroke:none;stroke-width:4.125;stroke-linecap:butt;stroke-linejoin:miter;stroke-miterlimit:4;stroke-dasharray:none;stroke-opacity:1"/><path d="m 579.10712,1386.4531 a 2.0627063,2.0627063 0 0 0 -2.06445,2.0996 c 0.1501,8.4169 0.99388,16.9467 0.10938,24.8848 a 2.0627063,2.0627063 0 0 0 2.15039,2.2871 l 3.94531,-0.1934 a 2.0627063,2.0627063 0 0 0 1.95508,-2.2207 c -0.63317,-8.0972 -1.05704,-15.8932 -1.93164,-23.8594 a 2.0627063,2.0627063 0 0 0 -1.0586,-1.5839 l -2.11719,-1.1602 a 2.0627063,2.0627063 0 0 0 -0.98828,-0.2539 z" id="path4878" style="color:#000000;font-style:normal;font-variant:normal;font-weight:normal;font-stretch:normal;font-size:medium;line-height:normal;font-family:sans-serif;font-variant-ligatures:normal;font-variant-position:normal;font-variant-caps:normal;font-variant-numeric:normal;font-variant-alternates:normal;font-feature-settings:normal;text-indent:0;text-align:start;text-decoration:none;text-decoration-line:none;text-decoration-style:solid;text-decoration-color:#000000;letter-spacing:normal;word-spacing:normal;text-transform:none;writing-mode:lr-tb;direction:ltr;text-orientation:mixed;dominant-baseline:auto;baseline-shift:baseline;text-anchor:start;white-space:normal;shape-padding:0;clip-rule:nonzero;display:inline;overflow:visible;visibility:visible;opacity:1;isolation:auto;mix-blend-mode:normal;color-interpolation:sRGB;color-interpolation-filters:linearRGB;solid-color:#000000;solid-opacity:1;vector-effect:none;fill:#165016;fill-opacity:1;fill-rule:evenodd;stroke:none;stroke-width:4.125;stroke-linecap:round;stroke-linejoin:round;stroke-miterlimit:4;stroke-dasharray:none;stroke-dashoffset:0;stroke-opacity:1;color-rendering:auto;image-rendering:auto;shape-rendering:auto;text-rendering:auto;enable-background:accumulate"/><path d="m 551.47467,1447.495 c 0.86212,0.1394 0.52125,5.2337 0.43534,13.3955 -0.0839,7.968 0.0962,19.4541 3.49211,30.8117 0.0213,0.072 0.0428,0.1445 0.0644,0.2168 2.13276,7.1408 5.24819,13.3174 8.67588,18.46 7.67762,11.5505 15.74591,17.6028 15.09349,18.4908 -0.35124,0.4781 -9.89551,-3.3995 -19.22623,-15.5239 -4.08055,-5.316 -7.72774,-11.9689 -10.06041,-19.779 -0.0236,-0.079 -0.047,-0.1581 -0.0703,-0.2371 -3.63728,-12.5103 -3.15989,-24.5499 -2.03622,-32.7425 1.14435,-8.3434 2.94353,-13.2036 3.63196,-13.0923 z" id="path8420" style="opacity:1;fill:#000000;fill-opacity:1;fill-rule:evenodd;stroke:none;stroke-width:11.51618862;stroke-linecap:round;stroke-linejoin:round;stroke-miterlimit:4;stroke-dasharray:none;stroke-dashoffset:0;stroke-opacity:1"/><path d="m 577.36322,1405.5062 c 0,0 -3.40387,14.246 -11.52537,19.113 -12.84155,7.6958 -48.77964,8.5644 -51.83263,11.5627 0,0 18.79231,-30.7568 32.65373,-36.1916 18.94537,-7.428 30.70427,5.5159 30.70427,5.5159 z" id="path4874" style="fill:#5aa02c;fill-rule:evenodd;stroke:none;stroke-width:4.125;stroke-linecap:round;stroke-linejoin:round;stroke-miterlimit:4;stroke-dasharray:none;stroke-opacity:1"/></g></g></svg>